<mxfile host="app.diagrams.net" modified="2024-01-05T23:57:13.885Z" agent="Mozilla/5.0 (Windows NT 10.0; Win64; x64; rv:121.0) Gecko/20100101 Firefox/121.0" etag="o5qEzBkI-nOTVrE6X0ET" version="22.1.17" type="device">
  <diagram name="Page-1" id="zFH8Bv8bcDbfKT7zOnhw">
    <mxGraphModel dx="1070" dy="703" grid="1" gridSize="10" guides="1" tooltips="1" connect="1" arrows="1" fold="1" page="1" pageScale="1" pageWidth="850" pageHeight="1100" math="0" shadow="0">
      <root>
        <mxCell id="0" />
        <mxCell id="1" parent="0" />
        <mxCell id="aqeLNekioee-tkTE74Kx-31" value="" style="rounded=0;whiteSpace=wrap;html=1;" vertex="1" parent="1">
          <mxGeometry x="80" y="50" width="680" height="530" as="geometry" />
        </mxCell>
        <mxCell id="aqeLNekioee-tkTE74Kx-1" value="Kafka" style="rounded=0;whiteSpace=wrap;html=1;verticalAlign=top;fillColor=#d5e8d4;strokeColor=#82b366;" vertex="1" parent="1">
          <mxGeometry x="420" y="150" width="120" height="270" as="geometry" />
        </mxCell>
        <mxCell id="aqeLNekioee-tkTE74Kx-6" style="edgeStyle=orthogonalEdgeStyle;rounded=0;orthogonalLoop=1;jettySize=auto;html=1;exitX=0.55;exitY=0.95;exitDx=0;exitDy=0;exitPerimeter=0;entryX=0;entryY=0.5;entryDx=0;entryDy=0;" edge="1" parent="1" source="aqeLNekioee-tkTE74Kx-2" target="aqeLNekioee-tkTE74Kx-4">
          <mxGeometry relative="1" as="geometry">
            <Array as="points">
              <mxPoint x="160" y="156" />
              <mxPoint x="160" y="180" />
            </Array>
          </mxGeometry>
        </mxCell>
        <mxCell id="aqeLNekioee-tkTE74Kx-2" value="API_00" style="ellipse;shape=cloud;whiteSpace=wrap;html=1;fillColor=#f8cecc;strokeColor=#b85450;" vertex="1" parent="1">
          <mxGeometry x="90" y="80" width="120" height="80" as="geometry" />
        </mxCell>
        <mxCell id="aqeLNekioee-tkTE74Kx-14" style="edgeStyle=orthogonalEdgeStyle;rounded=0;orthogonalLoop=1;jettySize=auto;html=1;exitX=1;exitY=0.5;exitDx=0;exitDy=0;entryX=0;entryY=0.5;entryDx=0;entryDy=0;" edge="1" parent="1" source="aqeLNekioee-tkTE74Kx-4" target="aqeLNekioee-tkTE74Kx-10">
          <mxGeometry relative="1" as="geometry" />
        </mxCell>
        <mxCell id="aqeLNekioee-tkTE74Kx-4" value="Producer_00" style="rounded=1;whiteSpace=wrap;html=1;fillColor=#f8cecc;strokeColor=#b85450;" vertex="1" parent="1">
          <mxGeometry x="220" y="150" width="120" height="60" as="geometry" />
        </mxCell>
        <mxCell id="aqeLNekioee-tkTE74Kx-7" style="edgeStyle=orthogonalEdgeStyle;rounded=0;orthogonalLoop=1;jettySize=auto;html=1;exitX=0.55;exitY=0.95;exitDx=0;exitDy=0;exitPerimeter=0;entryX=0;entryY=0.5;entryDx=0;entryDy=0;" edge="1" parent="1" source="aqeLNekioee-tkTE74Kx-8" target="aqeLNekioee-tkTE74Kx-9">
          <mxGeometry relative="1" as="geometry">
            <Array as="points">
              <mxPoint x="156" y="305" />
            </Array>
          </mxGeometry>
        </mxCell>
        <mxCell id="aqeLNekioee-tkTE74Kx-8" value="API_01" style="ellipse;shape=cloud;whiteSpace=wrap;html=1;fillColor=#f8cecc;strokeColor=#b85450;" vertex="1" parent="1">
          <mxGeometry x="90" y="205" width="120" height="80" as="geometry" />
        </mxCell>
        <mxCell id="aqeLNekioee-tkTE74Kx-13" style="edgeStyle=orthogonalEdgeStyle;rounded=0;orthogonalLoop=1;jettySize=auto;html=1;exitX=1;exitY=0.5;exitDx=0;exitDy=0;entryX=0;entryY=0.5;entryDx=0;entryDy=0;" edge="1" parent="1" source="aqeLNekioee-tkTE74Kx-9" target="aqeLNekioee-tkTE74Kx-11">
          <mxGeometry relative="1" as="geometry" />
        </mxCell>
        <mxCell id="aqeLNekioee-tkTE74Kx-9" value="Producer_01" style="rounded=1;whiteSpace=wrap;html=1;fillColor=#f8cecc;strokeColor=#b85450;" vertex="1" parent="1">
          <mxGeometry x="220" y="275" width="120" height="60" as="geometry" />
        </mxCell>
        <mxCell id="aqeLNekioee-tkTE74Kx-17" style="edgeStyle=orthogonalEdgeStyle;curved=1;rounded=0;orthogonalLoop=1;jettySize=auto;html=1;exitX=1;exitY=0.5;exitDx=0;exitDy=0;entryX=0;entryY=0.5;entryDx=0;entryDy=0;" edge="1" parent="1" source="aqeLNekioee-tkTE74Kx-10" target="aqeLNekioee-tkTE74Kx-15">
          <mxGeometry relative="1" as="geometry" />
        </mxCell>
        <mxCell id="aqeLNekioee-tkTE74Kx-10" value="&lt;div&gt;Topic_00&lt;/div&gt;" style="rounded=0;whiteSpace=wrap;html=1;" vertex="1" parent="1">
          <mxGeometry x="425" y="200" width="110" height="30" as="geometry" />
        </mxCell>
        <mxCell id="aqeLNekioee-tkTE74Kx-18" style="edgeStyle=orthogonalEdgeStyle;curved=1;rounded=0;orthogonalLoop=1;jettySize=auto;html=1;exitX=1;exitY=0.5;exitDx=0;exitDy=0;entryX=0;entryY=0.5;entryDx=0;entryDy=0;" edge="1" parent="1" source="aqeLNekioee-tkTE74Kx-11" target="aqeLNekioee-tkTE74Kx-15">
          <mxGeometry relative="1" as="geometry" />
        </mxCell>
        <mxCell id="aqeLNekioee-tkTE74Kx-11" value="&lt;div&gt;Topic_01&lt;/div&gt;" style="rounded=0;whiteSpace=wrap;html=1;" vertex="1" parent="1">
          <mxGeometry x="425" y="245" width="110" height="30" as="geometry" />
        </mxCell>
        <mxCell id="aqeLNekioee-tkTE74Kx-20" style="edgeStyle=orthogonalEdgeStyle;curved=1;rounded=0;orthogonalLoop=1;jettySize=auto;html=1;exitX=0.5;exitY=1;exitDx=0;exitDy=0;entryX=1;entryY=0.5;entryDx=0;entryDy=0;" edge="1" parent="1" source="aqeLNekioee-tkTE74Kx-15" target="aqeLNekioee-tkTE74Kx-19">
          <mxGeometry relative="1" as="geometry" />
        </mxCell>
        <mxCell id="aqeLNekioee-tkTE74Kx-15" value="Spark" style="rounded=0;whiteSpace=wrap;html=1;fillColor=#d5e8d4;strokeColor=#82b366;" vertex="1" parent="1">
          <mxGeometry x="580" y="210" width="120" height="50" as="geometry" />
        </mxCell>
        <mxCell id="aqeLNekioee-tkTE74Kx-22" style="edgeStyle=orthogonalEdgeStyle;curved=1;rounded=0;orthogonalLoop=1;jettySize=auto;html=1;exitX=0.5;exitY=1;exitDx=0;exitDy=0;entryX=0;entryY=0.5;entryDx=0;entryDy=0;" edge="1" parent="1" source="aqeLNekioee-tkTE74Kx-19" target="aqeLNekioee-tkTE74Kx-21">
          <mxGeometry relative="1" as="geometry" />
        </mxCell>
        <mxCell id="aqeLNekioee-tkTE74Kx-19" value="&lt;div&gt;Topic_processed&lt;/div&gt;" style="rounded=0;whiteSpace=wrap;html=1;" vertex="1" parent="1">
          <mxGeometry x="425" y="300" width="110" height="30" as="geometry" />
        </mxCell>
        <mxCell id="aqeLNekioee-tkTE74Kx-21" value="&lt;div&gt;Consumer_00&lt;/div&gt;" style="rounded=1;whiteSpace=wrap;html=1;fillColor=#f8cecc;strokeColor=#b85450;" vertex="1" parent="1">
          <mxGeometry x="590" y="335" width="120" height="60" as="geometry" />
        </mxCell>
        <mxCell id="aqeLNekioee-tkTE74Kx-29" style="edgeStyle=none;rounded=0;orthogonalLoop=1;jettySize=auto;html=1;exitX=0;exitY=0.5;exitDx=0;exitDy=0;exitPerimeter=0;entryX=1;entryY=0.5;entryDx=0;entryDy=0;" edge="1" parent="1" source="aqeLNekioee-tkTE74Kx-23" target="aqeLNekioee-tkTE74Kx-27">
          <mxGeometry relative="1" as="geometry" />
        </mxCell>
        <mxCell id="aqeLNekioee-tkTE74Kx-23" value="Postgres" style="shape=cylinder3;whiteSpace=wrap;html=1;boundedLbl=1;backgroundOutline=1;size=15;fillColor=#d5e8d4;strokeColor=#82b366;" vertex="1" parent="1">
          <mxGeometry x="610" y="470" width="80" height="90" as="geometry" />
        </mxCell>
        <mxCell id="aqeLNekioee-tkTE74Kx-26" style="edgeStyle=orthogonalEdgeStyle;curved=1;rounded=0;orthogonalLoop=1;jettySize=auto;html=1;exitX=0.5;exitY=1;exitDx=0;exitDy=0;entryX=0.5;entryY=0;entryDx=0;entryDy=0;entryPerimeter=0;" edge="1" parent="1" source="aqeLNekioee-tkTE74Kx-21" target="aqeLNekioee-tkTE74Kx-23">
          <mxGeometry relative="1" as="geometry" />
        </mxCell>
        <mxCell id="aqeLNekioee-tkTE74Kx-27" value="Grafana" style="rounded=0;whiteSpace=wrap;html=1;fillColor=#d5e8d4;strokeColor=#82b366;" vertex="1" parent="1">
          <mxGeometry x="420" y="485" width="120" height="60" as="geometry" />
        </mxCell>
      </root>
    </mxGraphModel>
  </diagram>
</mxfile>
